<?xml version="1.0" standalone="no"?>
<!DOCTYPE svg PUBLIC "-//W3C//DTD SVG 20010904//EN"
 "http://www.w3.org/TR/2001/REC-SVG-20010904/DTD/svg10.dtd">
<svg version="1.0" xmlns="http://www.w3.org/2000/svg"
 width="1249.000000pt" height="1280.000000pt" viewBox="0 0 1249.000000 1280.000000"
 preserveAspectRatio="xMidYMid meet">
<g transform="translate(0.000000,1280.000000) scale(0.100000,-0.100000)"
fill="#000000" stroke="none">
<path d="M8279 12795 c-3 -2 -70 -9 -150 -15 -273 -20 -479 -53 -714 -115
-623 -162 -1172 -470 -1624 -910 -412 -402 -675 -830 -844 -1375 -245 -791
-200 -1627 133 -2459 32 -81 38 -106 28 -112 -7 -5 -16 -9 -20 -9 -33 -1 -823
-144 -857 -155 -106 -35 -205 -125 -258 -233 -26 -52 -28 -67 -28 -167 0 -102
2 -114 29 -165 32 -62 51 -81 349 -354 120 -110 216 -206 215 -212 -3 -11
-1131 -1285 -3851 -4347 -268 -303 -494 -562 -502 -577 -18 -34 -88 -292 -119
-440 -28 -131 -54 -307 -63 -425 -7 -100 25 -300 68 -430 60 -178 150 -304
209 -291 104 23 846 107 1457 166 282 27 520 53 529 58 23 13 544 562 565 597
18 28 19 56 19 393 0 281 3 364 13 367 6 3 260 23 562 45 303 22 563 43 578
46 21 4 81 66 238 246 116 131 215 250 221 263 8 17 2 159 -23 549 -18 289
-30 529 -26 533 6 5 315 29 962 72 266 18 286 21 312 47 29 29 29 -1 -2 529
-14 237 -25 433 -25 437 0 16 563 683 579 685 9 2 169 -128 366 -298 289 -248
364 -307 430 -340 210 -104 388 -56 472 129 18 38 51 191 115 535 49 265 93
486 98 491 5 4 74 -8 157 -28 389 -95 744 -133 1123 -123 333 10 584 43 884
119 641 161 1166 464 1637 945 476 487 798 1136 914 1843 23 141 55 473 55
568 0 82 -5 145 -36 412 -75 664 -368 1340 -830 1920 -117 146 -425 461 -569
582 -625 522 -1379 862 -2135 962 -263 35 -624 58 -641 41z m1501 -1736 c186
-51 362 -183 459 -343 18 -31 47 -95 64 -143 28 -80 31 -100 31 -208 1 -98 -4
-134 -23 -195 -106 -344 -432 -554 -790 -511 -173 21 -309 85 -435 202 -247
230 -302 592 -134 877 46 78 160 190 243 240 80 47 201 90 289 102 84 12 211
3 296 -21z"/>
</g>
</svg>
